<svg width="21" height="20" viewBox="0 0 21 20" fill="none" xmlns="http://www.w3.org/2000/svg">
<g clip-path="url(#clip0_1318_12982)">
<path fill-rule="evenodd" clip-rule="evenodd" d="M0.25 10.0558C0.25 15.0275 3.86083 19.1617 8.58333 20V12.7775H6.08333V10H8.58333V7.7775C8.58333 5.2775 10.1942 3.88917 12.4725 3.88917C13.1942 3.88917 13.9725 4 14.6942 4.11083V6.66667H13.4167C12.1942 6.66667 11.9167 7.2775 11.9167 8.05583V10H14.5833L14.1392 12.7775H11.9167V20C16.6392 19.1617 20.25 15.0283 20.25 10.0558C20.25 4.525 15.75 0 10.25 0C4.75 0 0.25 4.525 0.25 10.0558Z" fill="#2563EB"/>
</g>
<defs>
<clipPath id="clip0_1318_12982">
<rect width="20" height="20" fill="white" transform="translate(0.25)"/>
</clipPath>
</defs>
</svg>
