<svg width="20" height="19" viewBox="0 0 20 19" fill="none" xmlns="http://www.w3.org/2000/svg">
<path d="M10.1747 8.1852C11.9747 8.57126 13.7468 7.42502 14.1329 5.625C14.5189 3.82499 13.3727 2.05283 11.5727 1.66677C9.77268 1.28071 8.00051 2.42695 7.61446 4.22696C7.2284 6.02698 8.37464 7.79914 10.1747 8.1852Z" stroke="white" stroke-width="1.5" stroke-linecap="round" stroke-linejoin="round"/>
<path d="M3.94565 15.3721C5.74566 15.7581 7.51782 14.6119 7.90388 12.8119C8.28994 11.0119 7.1437 9.23971 5.34369 8.85365C3.54367 8.46759 1.77151 9.61383 1.38545 11.4138C0.999394 13.2139 2.14563 14.986 3.94565 15.3721Z" stroke="white" stroke-width="1.5" stroke-linecap="round" stroke-linejoin="round"/>
<path d="M12.9085 17.2944C14.7086 17.6804 16.4807 16.5342 16.8668 14.7342C17.2528 12.9342 16.1066 11.162 14.3066 10.776C12.5066 10.3899 10.7344 11.5361 10.3483 13.3362C9.96228 15.1362 11.1085 16.9083 12.9085 17.2944Z" stroke="white" stroke-width="1.5" stroke-linecap="round" stroke-linejoin="round"/>
</svg>
